# xmcd
# 
# Track frame offsets:
#     150
#     14265
#     24217
#     38502
#     52685
#     62476
#     75432
#     91840
#     103600
#     117650
#     135340
#     147706
# 
# Disc length: 2192
# 
# Revision: 0
# Processed by: cddbd v1.5.2PL0 Copyright (c) Steve Scherf et al.
# Submitted via: fre:ac v1.0.31
# 
DISCID=89088e0c
DTITLE=Camille and Stuie - TAHI
DYEAR=0
DGENRE=Country
TTITLE0=Miss Me
TTITLE1=You Can't Call Me Baby
TTITLE2=Paper Cups
TTITLE3=Danny's Song
TTITLE4=All About You
TTITLE5=Wanda
TTITLE6=Gentle On My Mind
TTITLE7=Audrey's Guitar
TTITLE8=Everybody's Talkin'
TTITLE9=Someone's Been Walkin' In My Shoes
TTITLE10=Learning How To Love
TTITLE11=Last Night
EXTD=
EXTT0=
EXTT1=
EXTT2=
EXTT3=
EXTT4=
EXTT5=
EXTT6=
EXTT7=
EXTT8=
EXTT9=
EXTT10=
EXTT11=
PLAYORDER=
